# xmcd CD database file
#
# Track frame offsets:
#	150
#	22613
#	49880
#	63183
#	94835
#	108774
#	134405
#	149984
#	165594
#	179799
#	194395
#
# Disc length: 2839 seconds
#
# Revision: 0
# Processed by: cddbd v1.5.2PL0 Copyright (c) Steve Scherf et al.
# Submitted via: CDex 1.70beta2
#
DISCID=9c0b150b
DTITLE=Zaïti - Acoustic quartet - Still Time
DYEAR=2008
DGENRE=Jazz
TTITLE0=Double Scotch
TTITLE1=Lentement mademoiselle
TTITLE2=Impromptu
TTITLE3=In a Sentimental Mood
TTITLE4=Four On Six
TTITLE5=Three Views of a Secret
TTITLE6=Incertitude
TTITLE7=Still Time
TTITLE8=Donna Lee
TTITLE9=Naima
TTITLE10=Sos
EXTD=YEAR: 2008
EXTT0=
EXTT1=
EXTT2=
EXTT3=
EXTT4=
EXTT5=
EXTT6=
EXTT7=
EXTT8=
EXTT9=
EXTT10=
PLAYORDER=
